# xmcd
#
# Track frame offsets: 
#        150
#        16608
#        31366
#        51760
#        63227
#        78552
#        96881
#        113231
#        126320
#        141727
#        154845
#
# Disc length: 2225 seconds
#
# Revision: 0
# Processed by: cddbd v1.5.2PL0 Copyright (c) Steve Scherf et al.
# Submitted via: ExactAudioCopy v0.99pb3
#
DISCID=9308af0b
DTITLE=Izzy and Chris - Preachin' The Blues - Vol. 1
DYEAR=2008
DGENRE=Blues
TTITLE0=Steady Rollin' Daddy
TTITLE1=All I Ever Wanted
TTITLE2=Shame, Shame, Shame
TTITLE3=Leavin' You Baby
TTITLE4=Back To Memphis
TTITLE5=Flat Broke And Busted
TTITLE6=If You Hear Me Cryin'
TTITLE7=Gotta Find My Baby
TTITLE8=Country Blues #5
TTITLE9=Fentanyl Blues
TTITLE10=Preachin' The Blues
EXTD=
EXTT0=
EXTT1=
EXTT2=
EXTT3=
EXTT4=
EXTT5=
EXTT6=
EXTT7=
EXTT8=
EXTT9=
EXTT10=
PLAYORDER=
